<!DOCTYPE svg PUBLIC "-//W3C//DTD SVG 1.1//EN" "http://www.w3.org/Graphics/SVG/1.1/DTD/svg11.dtd">
<!-- Uploaded to: SVG Repo, www.svgrepo.com, Transformed by: SVG Repo Mixer Tools -->
<svg fill="#ffffff" height="800px" width="800px" version="1.1" id="Capa_1" xmlns="http://www.w3.org/2000/svg" xmlns:xlink="http://www.w3.org/1999/xlink" viewBox="-23.36 -23.36 280.27 280.27" xml:space="preserve">
<g id="SVGRepo_bgCarrier" stroke-width="0">
<path transform="translate(-23.36, -23.36), scale(8.7584375)" d="M16,29.81977853836382C18.612390011158393,30.112085898166463,21.553228873961846,30.865032079351305,23.740743445451645,29.407360935878017C25.9312123140077,27.947721168451846,25.8661227139596,24.734232077363387,27.111739042080522,22.41536552711007C28.310815267102072,20.183139048832427,31.415292200105913,18.489436977899572,30.942722229834864,16C30.441473325444452,13.359486137036093,26.258173485250307,13.180891922205348,24.91665804387326,10.851965078097935C23.572928289752564,8.519194094571121,25.54475273227636,4.77177334019,23.479958906441055,3.0443311355167655C21.532382608014625,1.414955140379785,18.537705073787393,3.481423860252874,16,3.3921348340809345C13.342922351065337,3.298645689819373,10.34685244250048,0.9252836234424153,8.209843349807407,2.5070528829458496C5.984512301947239,4.154196199162581,7.481707824635542,7.91379858347497,6.43067548280027,10.475147914031844C5.570524193241548,12.57132311435138,3.3063196187763904,13.82448888701973,2.673103929880787,15.999999999999998C1.9379175258154886,18.525847385344463,1.2901209756232113,21.45559860226414,2.5648520764115474,23.75678627028622C3.8397560893292244,26.058286085128476,6.800553938941683,26.697983766760508,9.198691680589135,27.780211567160496C11.393427797081353,28.77064860443346,13.607064354811994,29.55202651908842,16,29.81977853836382" fill="#ffbe6f" strokewidth="0"/>
</g>
<g id="SVGRepo_tracerCarrier" stroke-linecap="round" stroke-linejoin="round"/>
<g id="SVGRepo_iconCarrier"> <g> <path d="M42.32,146.242c9.466,0,17.164-10.334,17.164-23.038c0-12.704-7.698-23.038-17.164-23.038 c-9.468,0-17.166,10.334-17.166,23.038C25.154,135.908,32.852,146.242,42.32,146.242z"/> <path d="M83.236,146.242c9.456,0,17.164-10.334,17.164-23.038c0-12.704-7.707-23.038-17.164-23.038 c-9.468,0-17.166,10.334-17.166,23.038C66.07,135.908,73.768,146.242,83.236,146.242z"/> <path d="M115.279,134.751c-7.445-1.466-14.79,5.101-16.732,14.963c-1.939,9.851,2.367,18.714,9.813,20.179 c7.437,1.464,14.791-5.103,16.73-14.954C127.032,145.078,122.715,136.215,115.279,134.751z"/> <path d="M27.007,149.714c-1.942-9.862-9.286-16.429-16.732-14.963c-7.436,1.464-11.753,10.326-9.811,20.189 c1.939,9.851,9.293,16.418,16.73,14.954C24.64,168.428,28.946,159.565,27.007,149.714z"/> <path d="M88.687,175.066c-2.02-12.482-12.867-22.045-25.91-22.045c-13.043,0-23.891,9.563-25.91,22.045 c-9.284,4.05-15.791,13.313-15.791,24.071c0,14.475,11.776,26.251,26.251,26.251c5.772,0,11.112-1.877,15.451-5.047 c4.338,3.17,9.678,5.047,15.451,5.047c14.475,0,26.251-11.776,26.251-26.251C104.479,188.379,97.97,179.116,88.687,175.066z"/> <path d="M150.32,54.242c9.466,0,17.164-10.334,17.164-23.038c0-12.704-7.698-23.038-17.164-23.038 c-9.468,0-17.166,10.334-17.166,23.038C133.154,43.908,140.852,54.242,150.32,54.242z"/> <path d="M191.236,54.242c9.456,0,17.164-10.334,17.164-23.038c0-12.704-7.707-23.038-17.164-23.038 c-9.468,0-17.166,10.334-17.166,23.038C174.07,43.908,181.768,54.242,191.236,54.242z"/> <path d="M223.279,42.751c-7.445-1.466-14.79,5.101-16.732,14.963c-1.939,9.851,2.367,18.714,9.813,20.179 c7.437,1.464,14.791-5.103,16.73-14.954C235.032,53.078,230.715,44.215,223.279,42.751z"/> <path d="M125.194,77.894c7.445-1.466,11.752-10.329,9.813-20.179c-1.942-9.862-9.286-16.429-16.732-14.963 c-7.436,1.464-11.753,10.326-9.811,20.189C110.404,72.791,117.758,79.358,125.194,77.894z"/> <path d="M196.687,83.066c-2.02-12.482-12.867-22.045-25.91-22.045c-13.043,0-23.891,9.563-25.91,22.045 c-9.284,4.05-15.791,13.313-15.791,24.071c0,14.475,11.776,26.251,26.251,26.251c5.772,0,11.112-1.877,15.451-5.047 c4.338,3.17,9.678,5.047,15.451,5.047c14.475,0,26.251-11.776,26.251-26.251C212.479,96.379,205.97,87.116,196.687,83.066z"/> </g> </g>
</svg>