<!DOCTYPE svg PUBLIC "-//W3C//DTD SVG 1.1//EN" "http://www.w3.org/Graphics/SVG/1.1/DTD/svg11.dtd">
<!-- Uploaded to: SVG Repo, www.svgrepo.com, Transformed by: SVG Repo Mixer Tools -->
<svg fill="#FFFFFF" height="800px" width="800px" version="1.1" id="Capa_1" xmlns="http://www.w3.org/2000/svg" xmlns:xlink="http://www.w3.org/1999/xlink" viewBox="-23.36 -23.36 280.27 280.27" xml:space="preserve" stroke="#FFFFFF">
<g id="SVGRepo_bgCarrier" stroke-width="0">
<path transform="translate(-23.36, -23.36), scale(8.7584375)" d="M16,27.39071893133223C18.140649803359057,27.545269831185443,20.07952899259712,29.249576305130116,22.188222183834107,28.849975771475112C24.33631462173417,28.44290902127538,25.999613922404574,26.754158896718867,27.541042229257037,25.203674057800548C29.182052372347222,23.553022297960997,31.874767009604746,21.817321112762677,31.456011966352634,19.52773387141606C30.95422074025286,16.784137567058202,26.510292691353015,16.42509461334465,25.462714246204023,13.840197223285227C24.651812612215274,11.839299317263187,27.157413200071556,9.632351509125726,26.60038177982144,7.546477618598509C26.037761244197196,5.43967458582505,24.638795406610072,2.602005740140429,22.45819863216726,2.5894123569904934C19.722558223561016,2.5736134856770083,18.65274522779487,6.8167369326612,16,7.485258290544152C14.219765665426841,7.933897180637645,12.775554441872751,5.4785321336804405,10.939710130877222,5.49219981390832C8.95008137053179,5.507012404227511,6.859994217156873,6.189282389781308,5.42160737275538,7.564013382622592C3.963942942481739,8.95716883121356,2.527241037590507,11.09204402634776,3.0402900971593443,13.042030784687213C3.637749081880232,15.3128411236356,7.31666063879747,15.591446645955116,8.114675548257136,17.799773849559394C8.771110872470167,19.61631131857481,6.377012354370499,21.469986300121615,6.769302422045689,23.36123567923982C7.165246242044602,25.27009997492893,8.440952625595946,27.206502778189392,10.227632959695086,27.98644366806208C12.022930857319684,28.770146389324697,14.046186777695816,27.249657282117873,16,27.39071893133223" fill="#DD8D94" strokewidth="0"/>
</g>
<g id="SVGRepo_tracerCarrier" stroke-linecap="round" stroke-linejoin="round"/>
<g id="SVGRepo_iconCarrier"> <g> <path d="M42.32,146.242c9.466,0,17.164-10.334,17.164-23.038c0-12.704-7.698-23.038-17.164-23.038 c-9.468,0-17.166,10.334-17.166,23.038C25.154,135.908,32.852,146.242,42.32,146.242z"/> <path d="M83.236,146.242c9.456,0,17.164-10.334,17.164-23.038c0-12.704-7.707-23.038-17.164-23.038 c-9.468,0-17.166,10.334-17.166,23.038C66.07,135.908,73.768,146.242,83.236,146.242z"/> <path d="M115.279,134.751c-7.445-1.466-14.79,5.101-16.732,14.963c-1.939,9.851,2.367,18.714,9.813,20.179 c7.437,1.464,14.791-5.103,16.73-14.954C127.032,145.078,122.715,136.215,115.279,134.751z"/> <path d="M27.007,149.714c-1.942-9.862-9.286-16.429-16.732-14.963c-7.436,1.464-11.753,10.326-9.811,20.189 c1.939,9.851,9.293,16.418,16.73,14.954C24.64,168.428,28.946,159.565,27.007,149.714z"/> <path d="M88.687,175.066c-2.02-12.482-12.867-22.045-25.91-22.045c-13.043,0-23.891,9.563-25.91,22.045 c-9.284,4.05-15.791,13.313-15.791,24.071c0,14.475,11.776,26.251,26.251,26.251c5.772,0,11.112-1.877,15.451-5.047 c4.338,3.17,9.678,5.047,15.451,5.047c14.475,0,26.251-11.776,26.251-26.251C104.479,188.379,97.97,179.116,88.687,175.066z"/> <path d="M150.32,54.242c9.466,0,17.164-10.334,17.164-23.038c0-12.704-7.698-23.038-17.164-23.038 c-9.468,0-17.166,10.334-17.166,23.038C133.154,43.908,140.852,54.242,150.32,54.242z"/> <path d="M191.236,54.242c9.456,0,17.164-10.334,17.164-23.038c0-12.704-7.707-23.038-17.164-23.038 c-9.468,0-17.166,10.334-17.166,23.038C174.07,43.908,181.768,54.242,191.236,54.242z"/> <path d="M223.279,42.751c-7.445-1.466-14.79,5.101-16.732,14.963c-1.939,9.851,2.367,18.714,9.813,20.179 c7.437,1.464,14.791-5.103,16.73-14.954C235.032,53.078,230.715,44.215,223.279,42.751z"/> <path d="M125.194,77.894c7.445-1.466,11.752-10.329,9.813-20.179c-1.942-9.862-9.286-16.429-16.732-14.963 c-7.436,1.464-11.753,10.326-9.811,20.189C110.404,72.791,117.758,79.358,125.194,77.894z"/> <path d="M196.687,83.066c-2.02-12.482-12.867-22.045-25.91-22.045c-13.043,0-23.891,9.563-25.91,22.045 c-9.284,4.05-15.791,13.313-15.791,24.071c0,14.475,11.776,26.251,26.251,26.251c5.772,0,11.112-1.877,15.451-5.047 c4.338,3.17,9.678,5.047,15.451,5.047c14.475,0,26.251-11.776,26.251-26.251C212.479,96.379,205.97,87.116,196.687,83.066z"/> </g> </g>
</svg>